<svg width="24" height="24" viewBox="0 0 24 24" fill="black" xmlns="http://www.w3.org/2000/svg">
<path d="M16.899 7.05095C16.5085 6.6605 15.8755 6.66046 15.485 7.05087L11.949 10.586L8.414 7.05099C8.02353 6.66053 7.39046 6.66053 7 7.05099V7.05099C6.60953 7.44146 6.60953 8.07453 7 8.46499L10.535 12L7 15.535C6.60953 15.9255 6.60953 16.5585 7 16.949V16.949C7.39046 17.3395 8.02353 17.3395 8.414 16.949L11.949 13.414L15.485 16.9491C15.8755 17.3395 16.5085 17.3395 16.899 16.949V16.949C17.2894 16.5585 17.2894 15.9254 16.899 15.535L13.364 12L16.899 8.46504C17.2894 8.07455 17.2894 7.44144 16.899 7.05095V7.05095Z" />
</svg>
